<?xml version="1.0" encoding="utf-8"?>
<!-- Generator: Adobe Illustrator 27.8.1, SVG Export Plug-In . SVG Version: 6.00 Build 0)  -->
<svg  width="100px" height="48px" version="1.1" id="Layer_1" xmlns="http://www.w3.org/2000/svg" xmlns:xlink="http://www.w3.org/1999/xlink" x="0px" y="0px"
	 viewBox="0 0 83 52" style="enable-background:new 0 0 83 52;" xml:space="preserve">
<style type="text/css">
	.st0{enable-background:new    ;}
	.st1{fill:#262626;}
	.st2{fill:#002B54;}
</style>
<g id="trueid-logo">
	<g id="Group" transform="translate(0.000000, -0.000189)">
		<g class="st0">
			<path class="st1" d="M20.7,29.1l-2.5-8.3h-0.1c0.1,1.7,0.1,2.8,0.1,3.4v4.9h-2V18.5h3l2.5,8.1h0l2.7-8.1h3v10.6h-2.1v-5
				c0-0.2,0-0.5,0-0.8c0-0.3,0-1.1,0.1-2.5h-0.1l-2.7,8.3H20.7z"/>
			<path class="st1" d="M28.9,21h2.4l1.5,4.5c0.1,0.4,0.2,0.9,0.3,1.4h0c0.1-0.5,0.2-1,0.3-1.4L35,21h2.4l-3.4,9.1
				c-0.3,0.8-0.8,1.5-1.3,1.9c-0.6,0.4-1.3,0.6-2,0.6c-0.4,0-0.8,0-1.1-0.1v-1.7c0.3,0.1,0.6,0.1,0.9,0.1c0.4,0,0.7-0.1,1-0.4
				c0.3-0.2,0.5-0.6,0.7-1.1l0.1-0.4L28.9,21z"/>
			<path class="st1" d="M42.7,29.1h-2.2v-8.7h-2.9v-1.9h8v1.9h-2.9V29.1z"/>
			<path class="st1" d="M51.6,20.8c0.3,0,0.5,0,0.7,0.1L52.1,23c-0.2,0-0.4-0.1-0.7-0.1c-0.7,0-1.3,0.2-1.6,0.5s-0.6,0.9-0.6,1.5
				v4.1H47V21h1.7l0.3,1.4h0.1c0.3-0.5,0.6-0.8,1-1.1S51.1,20.8,51.6,20.8z"/>
			<path class="st1" d="M59.5,29.1l-0.3-1h-0.1c-0.2,0.4-0.6,0.7-1,0.9c-0.4,0.2-0.9,0.3-1.5,0.3c-0.9,0-1.7-0.3-2.1-0.8
				c-0.5-0.5-0.7-1.2-0.7-2.2V21h2.2v4.7c0,0.6,0.1,1,0.3,1.3c0.2,0.3,0.5,0.4,1,0.4c0.6,0,1.1-0.2,1.3-0.6c0.3-0.4,0.4-1.1,0.4-2
				V21h2.2v8.1H59.5z"/>
			<path class="st1" d="M67.1,29.2c-1.3,0-2.3-0.4-3-1.1c-0.7-0.7-1.1-1.7-1.1-3c0-1.4,0.3-2.4,1-3.1c0.7-0.7,1.6-1.1,2.8-1.1
				c1.1,0,2,0.3,2.7,1s1,1.5,1,2.7v1.1h-5.2c0,0.6,0.2,1.1,0.6,1.5s0.8,0.5,1.5,0.5c0.5,0,0.9-0.1,1.4-0.2c0.4-0.1,0.9-0.3,1.4-0.5
				v1.7c-0.4,0.2-0.8,0.3-1.2,0.4S67.8,29.2,67.1,29.2z M66.8,22.4c-0.5,0-0.8,0.1-1.1,0.4c-0.3,0.3-0.4,0.7-0.5,1.3h3.1
				c0-0.5-0.2-1-0.4-1.3C67.7,22.5,67.3,22.4,66.8,22.4z"/>
		</g>
		<g class="st0">
			<path class="st1" d="M29.4,45.9V35.4h1.2v10.6H29.4z"/>
			<path class="st1" d="M38.8,44.9L38.8,44.9c-0.6,0.8-1.4,1.2-2.6,1.2c-1,0-1.8-0.4-2.4-1.1c-0.6-0.7-0.9-1.7-0.9-3s0.3-2.3,0.9-3
				s1.4-1.1,2.4-1.1c1.1,0,1.9,0.4,2.5,1.2h0.1l-0.1-0.6l0-0.6v-3.2h1.2v11.2h-1L38.8,44.9z M36.4,45.1c0.8,0,1.4-0.2,1.8-0.7
				c0.4-0.4,0.6-1.2,0.6-2.2V42c0-1.1-0.2-1.9-0.6-2.4c-0.4-0.5-1-0.7-1.8-0.7c-0.7,0-1.2,0.3-1.6,0.8c-0.4,0.5-0.6,1.3-0.6,2.3
				c0,1,0.2,1.8,0.6,2.3S35.7,45.1,36.4,45.1z"/>
			<path class="st1" d="M45.8,46.1c-1.2,0-2.1-0.4-2.8-1.1s-1-1.7-1-3c0-1.3,0.3-2.3,0.9-3c0.6-0.8,1.5-1.1,2.5-1.1
				c1,0,1.8,0.3,2.4,1c0.6,0.7,0.9,1.5,0.9,2.6v0.8h-5.5c0,0.9,0.3,1.6,0.7,2.1c0.4,0.5,1.1,0.7,1.9,0.7c0.9,0,1.7-0.2,2.5-0.5v1.1
				c-0.4,0.2-0.8,0.3-1.2,0.4S46.3,46.1,45.8,46.1z M45.5,38.9c-0.6,0-1.1,0.2-1.5,0.6c-0.4,0.4-0.6,1-0.7,1.7h4.1
				c0-0.8-0.2-1.3-0.5-1.7C46.6,39.1,46.1,38.9,45.5,38.9z"/>
			<path class="st1" d="M56.2,45.9v-5.1c0-0.6-0.1-1.1-0.4-1.4c-0.3-0.3-0.8-0.5-1.4-0.5c-0.8,0-1.4,0.2-1.8,0.7
				C52.2,40,52,40.8,52,41.8v4.2h-1.2V38h1l0.2,1.1H52c0.2-0.4,0.6-0.7,1-0.9c0.4-0.2,0.9-0.3,1.5-0.3c1,0,1.7,0.2,2.2,0.7
				c0.5,0.5,0.7,1.2,0.7,2.2v5.2H56.2z"/>
			<path class="st1" d="M62.4,45.1c0.2,0,0.4,0,0.6,0s0.4-0.1,0.5-0.1v0.9c-0.1,0.1-0.3,0.1-0.6,0.2s-0.5,0.1-0.7,0.1
				c-1.5,0-2.3-0.8-2.3-2.4V39h-1.1v-0.6l1.1-0.5l0.5-1.7h0.7V38h2.3V39h-2.3v4.7c0,0.5,0.1,0.8,0.3,1.1C61.7,45,62,45.1,62.4,45.1z
				"/>
			<path class="st1" d="M65,35.9c0-0.3,0.1-0.5,0.2-0.6c0.1-0.1,0.3-0.2,0.5-0.2c0.2,0,0.4,0.1,0.5,0.2c0.1,0.1,0.2,0.3,0.2,0.6
				s-0.1,0.5-0.2,0.6c-0.1,0.1-0.3,0.2-0.5,0.2c-0.2,0-0.4-0.1-0.5-0.2S65,36.1,65,35.9z M66.3,45.9h-1.2V38h1.2V45.9z"/>
			<path class="st1" d="M71.4,45.1c0.2,0,0.4,0,0.6,0s0.4-0.1,0.5-0.1v0.9c-0.1,0.1-0.3,0.1-0.6,0.2s-0.5,0.1-0.7,0.1
				c-1.5,0-2.3-0.8-2.3-2.4V39h-1.1v-0.6l1.1-0.5l0.5-1.7h0.7V38h2.3V39h-2.3v4.7c0,0.5,0.1,0.8,0.3,1.1C70.7,45,71,45.1,71.4,45.1z
				"/>
			<path class="st1" d="M72.8,38h1.3l1.7,4.5c0.4,1,0.6,1.8,0.7,2.2h0.1c0.1-0.2,0.2-0.7,0.4-1.3c0.2-0.6,0.9-2.4,2-5.5h1.3l-3.4,9
				c-0.3,0.9-0.7,1.5-1.2,1.9c-0.5,0.4-1,0.6-1.7,0.6c-0.4,0-0.7,0-1.1-0.1v-1c0.3,0.1,0.6,0.1,0.9,0.1c0.8,0,1.4-0.5,1.8-1.4L76,46
				L72.8,38z"/>
		</g>
		<path id="TU-Icon---Load-wheel" class="st2" d="M13.5,44.6c0.9,0.5,1.9,0.1,2.4-0.7c0,0,0,0,0,0l2.8-5.7c0.4-0.9,0.1-2-0.8-2.5
			c-0.9-0.5-1.9-0.1-2.4,0.7c0,0,0,0,0,0l-2.8,5.7C12.3,43,12.6,44.1,13.5,44.6z M9,22.8l-6,0.3c-1,0.1-1.8,0.9-1.8,2
			c0.1,1,0.9,1.8,2,1.8l6-0.3c1-0.1,1.8-0.9,1.8-2c0,0,0,0,0,0C10.9,23.5,10,22.7,9,22.8z M10.5,30.5l-5.1,3.4
			c-0.9,0.6-1.1,1.7-0.6,2.6c0.5,0.8,1.6,1.1,2.5,0.6c0,0,0,0,0,0l5.1-3.4c0.9-0.6,1.1-1.7,0.6-2.6C12.5,30.2,11.3,30,10.5,30.5
			C10.5,30.5,10.5,30.5,10.5,30.5z M11.5,15.3l-5.4-2.8c-0.9-0.5-2-0.1-2.4,0.8c0,0,0,0,0,0c-0.5,0.9-0.1,2,0.8,2.5l5.4,2.8
			c0.9,0.5,2,0.1,2.4-0.8c0,0,0,0,0,0C12.8,16.9,12.4,15.8,11.5,15.3z M34,3.2C33.1,2.7,32,3,31.6,3.9c0,0,0,0,0,0l-2.8,5.7
			c-0.4,0.9-0.1,2,0.8,2.5c0.9,0.5,1.9,0.1,2.4-0.7c0,0,0,0,0,0l2.8-5.7C35.2,4.7,34.9,3.6,34,3.2z M10.9,6.9l3.4,5.3
			c0.5,0.8,1.6,1.1,2.4,0.6c0,0,0,0,0,0c0.8-0.6,1.1-1.7,0.5-2.6l-3.4-5.3c-0.5-0.8-1.6-1.1-2.4-0.6c0,0,0,0,0,0
			C10.6,4.9,10.3,6,10.9,6.9z M23.1,10.7c1-0.1,1.8-0.9,1.7-1.9l-0.3-6.4c-0.1-1-0.9-1.8-1.9-1.7c-1,0.1-1.8,0.9-1.7,1.9l0.3,6.4
			C21.2,9.9,22.1,10.7,23.1,10.7z"/>
	</g>
</g>
</svg>
